<svg width="34" height="32" viewBox="0 0 34 32" fill="none" xmlns="http://www.w3.org/2000/svg">
<path d="M32.535 16.9702C32.5737 16.3785 33.109 15.792 33.0793 15.2066C33.0483 14.6162 32.4535 14.0844 32.3539 13.5041C32.2557 12.9214 32.6423 12.233 32.4781 11.6668C32.3126 11.0993 31.6105 10.7074 31.3803 10.1628C31.1502 9.61689 31.3713 8.86362 31.0804 8.34447C30.7894 7.82786 30.0162 7.59628 29.6658 7.11276C29.318 6.63051 29.3607 5.84797 28.956 5.4039C28.5552 4.96364 27.7471 4.90511 27.2932 4.50811C26.8446 4.11493 26.7049 3.34257 26.2072 2.99647C25.7158 2.65547 24.9155 2.7738 24.3789 2.48369C23.8526 2.19867 23.5397 1.47593 22.9708 1.24435C22.4019 1.01277 21.6494 1.30034 21.0715 1.13492C20.4819 0.965688 20.0112 0.329477 19.4165 0.226411C18.8126 0.122072 18.1442 0.564875 17.5391 0.527975C16.9275 0.491074 16.3211 -0.0280741 15.716 0.00119166C15.1057 0.0304574 14.5562 0.606865 13.9575 0.702297C13.355 0.797728 12.6439 0.422364 12.0582 0.582689C11.4711 0.743014 11.0677 1.42249 10.504 1.64389C9.94027 1.86529 9.16061 1.65152 8.62532 1.934C8.09132 2.21521 7.85212 2.96339 7.35174 3.30186C6.85395 3.63778 6.04454 3.59706 5.58554 3.98896C5.13041 4.37578 5.07094 5.15832 4.65977 5.59731C4.25378 6.0312 3.45602 6.16608 3.09786 6.64833C2.74617 7.12294 2.86771 7.89657 2.56774 8.417C2.27295 8.92596 1.5269 9.2288 1.28641 9.77849C1.04721 10.3282 1.3433 11.0573 1.17263 11.6159C0.998075 12.1859 0.339953 12.6427 0.233929 13.2166C0.126612 13.8006 0.584324 14.4483 0.545535 15.0323C0.506746 15.624 -0.0285444 16.2106 0.00119398 16.7959C0.0322253 17.3863 0.626992 17.9182 0.726551 18.4984C0.82611 19.0812 0.436926 19.7683 0.602426 20.3345C0.767926 20.9033 1.47001 21.2926 1.70016 21.8385C1.93031 22.3844 1.70921 23.1389 2.00013 23.6568C2.29105 24.1734 3.06424 24.405 3.41464 24.8885C3.76245 25.3695 3.71978 26.1533 4.12448 26.5974C4.5253 27.0376 5.33341 27.0962 5.78724 27.4932C6.2372 27.8863 6.37555 28.6587 6.87463 29.0048C7.36596 29.3458 8.16631 29.2275 8.7029 29.5176C9.22913 29.8026 9.54203 30.5253 10.1109 30.7569C10.6798 30.9885 11.4324 30.7009 12.0103 30.8664C12.5999 31.0356 13.0706 31.6731 13.6653 31.7749C14.2704 31.8792 14.9389 31.4364 15.5427 31.472C16.1543 31.5089 16.7607 32.0281 17.3658 31.9988C17.9761 31.9683 18.5256 31.3931 19.1243 31.2977C19.7268 31.2023 20.4379 31.5776 21.0236 31.4173C21.6106 31.257 22.014 30.5775 22.5791 30.3561C23.1428 30.1334 23.9225 30.3472 24.4578 30.066C24.9918 29.7848 25.231 29.0366 25.7313 28.6981C26.2291 28.361 27.0385 28.4029 27.4975 28.0123C27.9527 27.6242 28.0121 26.843 28.4233 26.404C28.8306 25.9701 29.6284 25.8352 29.9852 25.3529C30.3369 24.8783 30.2154 24.1047 30.5153 23.5855C30.8101 23.0766 31.5562 22.7737 31.7954 22.2241C32.0346 21.6744 31.7385 20.9453 31.9092 20.3867C32.0837 19.8166 32.7418 19.3611 32.8479 18.7847C32.9552 18.2007 32.4975 17.553 32.535 16.9689V16.9702Z" fill="#A0AAB8"/>
<path d="M6.281 15.6367C6.00689 15.6367 5.7832 15.8568 5.7832 16.1266C5.7832 16.3964 6.00689 16.6165 6.281 16.6165C6.55511 16.6165 6.77879 16.3964 6.77879 16.1266C6.77879 15.8568 6.55511 15.6367 6.281 15.6367Z" fill="white"/>
<path d="M26.7654 15.6367C26.4913 15.6367 26.2676 15.8568 26.2676 16.1266C26.2676 16.3964 26.4913 16.6165 26.7654 16.6165C27.0395 16.6165 27.2632 16.3964 27.2632 16.1266C27.2632 15.8568 27.0395 15.6367 26.7654 15.6367Z" fill="white"/>
<path d="M30.9499 13.5496C30.5995 11.4539 29.7487 9.43327 28.4907 7.70787C26.8538 5.46331 24.6557 3.73409 22.1357 2.70725C19.6144 1.67913 16.8177 1.37375 14.0482 1.82164C11.9187 2.16647 9.86542 3.00245 8.11085 4.24179C5.83005 5.85267 4.0729 8.01452 3.02947 10.4957C1.98475 12.977 1.67444 15.7279 2.12957 18.4547C2.47996 20.5504 3.32944 22.571 4.5888 24.2964C6.2257 26.541 8.42375 28.2702 10.9438 29.2983C12.7112 30.0185 14.6145 30.385 16.5488 30.385C17.3737 30.385 18.2038 30.3188 19.0313 30.1852C21.1621 29.8404 23.2141 29.0044 24.9686 27.7651C27.2494 26.1542 29.0066 23.9911 30.0513 21.5098C31.096 19.0286 31.4063 16.2764 30.9512 13.5508L30.9499 13.5496ZM30.6021 16.0015C30.6021 19.6979 29.1398 23.1729 26.484 25.7864C23.8282 28.4 20.2971 29.8391 16.541 29.8391C12.7849 29.8391 9.25384 28.4 6.59808 25.7864C3.99403 23.2238 2.53168 19.8188 2.48125 16.1975C2.45539 14.3436 2.80191 12.5303 3.51046 10.8075C4.21901 9.08463 5.25339 7.545 6.58127 6.23313C9.23962 3.60812 12.7772 2.16265 16.541 2.16265C20.3049 2.16265 23.8282 3.60176 26.484 6.21531C29.1398 8.82887 30.6021 12.3039 30.6021 16.0002V16.0015Z" fill="white"/>
<path d="M16.5486 29.2004C14.7734 29.2004 13.0279 28.8645 11.4052 28.2028C9.09207 27.26 7.07503 25.6733 5.57389 23.6132C4.41927 22.029 3.63831 20.1751 3.31766 18.2512C2.90003 15.7509 3.18577 13.2252 4.14386 10.9488C5.10196 8.67243 6.71429 6.68745 8.80632 5.21016C10.4161 4.07262 12.2999 3.30535 14.2562 2.98851C16.7969 2.57752 19.3634 2.85873 21.6766 3.80159C23.9897 4.74446 26.0067 6.33117 27.5079 8.38995C28.6638 9.97412 29.4434 11.828 29.7654 13.7519C30.183 16.2535 29.8973 18.778 28.9392 21.0544C27.9811 23.3307 26.3688 25.3157 24.2767 26.793C22.667 27.9305 20.7818 28.6978 18.8269 29.0147C18.0679 29.1368 17.3063 29.1979 16.5499 29.1979L16.5486 29.2004ZM16.5331 3.04959C15.7897 3.04959 15.0423 3.10939 14.2963 3.23028C12.3788 3.54075 10.5299 4.29402 8.95113 5.40866C6.8966 6.85922 5.314 8.8073 4.37272 11.0417C3.43273 13.2761 3.15215 15.7547 3.56203 18.2105C3.87751 20.0975 4.64295 21.9171 5.77559 23.4707C7.24958 25.4926 9.23042 27.0513 11.5009 27.9764C13.7713 28.9014 16.2913 29.1775 18.7868 28.7742C20.7042 28.4637 22.5532 27.7104 24.1319 26.5958C26.1865 25.1439 27.7703 23.1959 28.7103 20.9615C29.6503 18.7271 29.9309 16.2472 29.521 13.7914C29.2055 11.9044 28.4401 10.0848 27.3075 8.53119C25.8322 6.50931 23.8526 4.95186 21.5822 4.02554C19.9905 3.3766 18.276 3.04705 16.5344 3.04705L16.5331 3.04959Z" fill="#FEFEFF"/>
<path d="M21.3817 22.1269C20.8568 21.6218 20.2943 21.1802 19.066 20.7171C17.839 20.2539 16.9998 20.2552 16.4943 20.2806C15.8426 20.3137 15.3254 20.4371 14.732 20.6611L14.7294 20.67L14.7333 20.6611L14.6402 19.5248C14.6156 19.222 14.4165 18.9599 14.1269 18.8504L10.023 17.3006L9.19029 16.9863L8.38477 19.0527L8.85541 19.2309C9.05582 19.306 9.15538 19.5274 9.0778 19.7233L8.41063 21.4334L13.6588 23.4159L13.7015 23.4324C14.0855 22.7848 14.6634 22.3878 15.6345 22.7644C16.7374 23.1932 16.7723 23.7989 16.6171 24.5331L21.8847 26.5231L21.8873 26.5155L22.1485 25.8449C22.6036 24.6794 22.4963 23.1983 21.3817 22.1269Z" fill="#FEFEFF"/>
<path d="M16.7976 12.0248L16.6347 11.9586C16.1123 11.7474 15.4128 11.6138 14.8232 11.6214C14.6758 11.6278 14.5259 11.6329 14.3823 11.6469C14.2414 11.6647 14.0992 11.6787 13.9621 11.7054C13.6867 11.7537 13.4243 11.8186 13.1825 11.895C12.9394 11.9688 12.7506 12.1202 12.6265 12.2449C12.5644 12.3072 12.5166 12.3543 12.4856 12.3963C12.4481 12.4421 12.4222 12.4816 12.4222 12.4816C12.3317 12.5961 12.2722 12.7221 12.4002 12.7348C12.6562 12.7195 13.1799 12.5006 13.2032 12.619C13.2096 12.6483 13.0984 12.6724 12.9898 12.7093C12.611 12.848 12.942 12.8722 12.8683 12.9689C12.7933 13.0643 12.7545 13.0872 12.6588 13.1776C12.6381 13.2005 12.5864 13.2412 12.5218 13.2921C12.4584 13.3443 12.3821 13.4079 12.3045 13.4715C12.152 13.5987 12.1002 13.6395 12.064 13.6865C11.936 13.7972 12.2916 13.8952 12.5554 13.9105C12.686 13.9143 12.7028 13.9283 12.8411 13.9245C12.9821 13.927 13.0014 13.955 13.0971 13.9448C13.2911 13.9423 13.1333 14.081 13.1566 14.1624C13.2394 14.1217 13.3092 14.1141 13.3764 14.1077C13.4449 14.1014 13.5122 14.1001 13.5962 14.0632C13.5975 14.0708 13.6311 14.0683 13.6854 14.0619C13.7397 14.0581 13.8134 14.0492 13.8949 14.0365C14.0578 14.0161 14.2518 13.9957 14.3798 13.9856C14.3798 13.9856 14.4004 13.9767 14.4548 13.9639C14.5065 13.9538 14.5892 13.9448 14.7133 13.9398C14.7974 13.9423 14.7987 13.913 14.8013 13.885C14.8004 13.9037 14.7991 13.9228 14.7974 13.9423C14.8413 13.9143 14.9047 13.9169 14.9681 13.9207C15.0314 13.9296 15.0935 13.9436 15.1387 13.9321C15.1361 13.9508 15.1336 13.9699 15.131 13.9894C15.2189 13.9652 15.3042 13.9805 15.3883 13.9957L15.515 14.0199C15.5577 14.0301 15.6003 14.0365 15.6443 14.039C15.64 14.0577 15.6352 14.0763 15.6301 14.095C15.7141 14.1128 15.7981 14.1294 15.7904 14.1599C15.7852 14.1786 15.78 14.1972 15.7749 14.2159C15.8499 14.2668 16.0335 14.2553 16.0154 14.31C16.0214 14.2914 16.0274 14.2731 16.0335 14.2553C16.2003 14.31 16.3451 14.3609 16.4757 14.4258C16.6075 14.4844 16.7226 14.5531 16.8377 14.6192C16.8752 14.6434 16.9127 14.6676 16.9528 14.6905C16.989 14.7147 17.0252 14.7401 17.0614 14.7643C17.0989 14.7885 17.1364 14.8126 17.1739 14.8368C17.2127 14.8597 17.2527 14.8826 17.2851 14.9081C17.3523 14.9577 17.4286 15.0035 17.4958 15.0506C17.5256 15.0748 17.5566 15.0989 17.5876 15.1218L17.6355 15.1562C17.651 15.1676 17.6665 15.1766 17.6898 15.1969C17.8566 15.3407 18.035 15.4768 18.2031 15.6181C18.2871 15.6893 18.3712 15.7593 18.4539 15.8293C18.4953 15.8637 18.538 15.8993 18.5793 15.9336C18.6259 15.9744 18.6737 16.0151 18.7203 16.0545C18.7991 16.1309 18.9168 16.1627 18.878 16.0456C18.9556 16.1207 19.0345 16.197 19.112 16.2721C19.2711 16.4184 19.2504 16.2797 19.4094 16.4248L19.6654 16.6233L19.6965 16.6487L19.7365 16.678L19.8167 16.7353L19.977 16.8498C20.1917 16.9898 20.4076 17.1195 20.6235 17.2226L20.7851 17.3053L20.9468 17.3766C21.0567 17.4224 21.1575 17.4733 21.2739 17.514L21.6217 17.6374L21.7083 17.668L21.7975 17.6909L21.9773 17.7367L22.1195 17.5827C22.0432 17.5611 21.9708 17.5394 21.9049 17.5178C21.7704 17.4771 21.6657 17.4173 21.5932 17.3613C21.4937 17.2926 21.4084 17.1832 21.1071 17.0432C21.2105 17.0877 21.3088 17.1374 21.4174 17.1755C21.429 17.1488 21.451 17.0954 21.451 17.0954C21.3463 17.0508 21.2467 16.9923 21.1381 16.9376C21.0308 16.8854 20.9235 16.818 20.8162 16.7531C20.7632 16.72 20.7089 16.6895 20.6571 16.6551C20.6054 16.6182 20.555 16.5813 20.5046 16.5444C20.4554 16.5075 20.4063 16.4719 20.3585 16.4363C20.3132 16.3955 20.268 16.3561 20.2253 16.3179C20.2253 16.3179 20.2615 16.2721 20.2783 16.2492C20.2783 16.2492 20.0999 16.1105 20.1063 16.1105C20.1012 16.0367 20.1464 16.0316 20.2317 16.0685C20.2757 16.0863 20.3287 16.1143 20.3882 16.15C20.4477 16.1843 20.524 16.2874 20.5977 16.3256C20.6701 16.3663 20.78 16.4273 20.8588 16.4732C20.939 16.5139 20.9972 16.538 21.0774 16.5788C21.1174 16.5979 21.1485 16.622 21.1873 16.6398C21.2273 16.6564 21.3036 16.7035 21.3411 16.7187C21.4161 16.7493 21.4976 16.7836 21.5583 16.8065C21.57 16.7798 22.1143 16.9669 22.126 16.9401L23.1422 17.1106C23.2431 17.1259 22.7686 16.804 22.8785 16.8205C22.9897 16.8269 23.1047 16.8332 23.2198 16.8396C23.45 16.8472 23.6853 16.8282 23.8857 16.7785C23.9852 16.7365 23.9452 16.7124 23.6478 16.6984C23.4978 16.7047 23.2082 16.7162 22.925 16.6437L22.5151 16.5482L22.8966 16.5915C23.0039 16.5877 23.0181 16.5991 23.1396 16.6093C23.2004 16.6144 23.2612 16.6182 23.3194 16.6195C23.3788 16.6169 23.4344 16.6131 23.4849 16.6042C23.5844 16.5737 23.5805 16.5482 23.3982 16.5011L23.3245 16.491C23.2625 16.4871 23.2043 16.4897 23.128 16.477C23.0642 16.4702 23.0069 16.4634 22.956 16.4566C22.872 16.4452 22.5966 16.3294 22.5281 16.3141L22.2617 16.2009C22.2126 16.1881 22.1673 16.1678 22.1247 16.1449C22.082 16.1232 22.0406 16.1003 22.0018 16.0774C21.8454 15.9922 21.7213 15.8598 21.6294 15.7441C21.5984 15.7021 21.4911 15.6295 21.3553 15.5608C21.2312 15.4832 21.0812 15.403 20.9946 15.3267L21.0864 15.4005L21.1911 15.4679C21.1575 15.4399 21.12 15.4145 21.0877 15.3852L20.9972 15.2974C20.9662 15.2669 20.9377 15.244 20.9028 15.2096L20.7916 15.0964C20.6429 14.945 20.4903 14.7974 20.3455 14.6409L20.1257 14.4106L19.8826 14.1624L19.6331 13.9105C19.5478 13.8303 19.4624 13.7502 19.3771 13.67C19.2918 13.5898 19.2064 13.511 19.1211 13.4308C19.0189 13.3455 18.9077 13.2577 18.8004 13.1725C18.6685 13.0758 18.4539 12.9002 18.2263 12.7475C18.172 12.7157 17.8423 12.4485 17.1234 12.1571L16.8028 12.0273L16.7976 12.0248Z" fill="#5A6472"/>
<path d="M12.4846 14.4302C13.3599 14.3462 13.7491 14.3195 14.4848 14.4175C14.4913 14.3844 14.4564 14.3449 14.5223 14.3373C14.574 14.336 14.6219 14.3411 14.6658 14.3539C14.7111 14.3679 14.7538 14.3869 14.7964 14.4048C14.8391 14.4226 14.8818 14.4404 14.9257 14.4544C14.9697 14.4709 15.0162 14.4836 15.0679 14.4875L15.0977 14.4378C15.2464 14.4938 15.3951 14.5765 15.5476 14.6503C15.8463 14.7432 16.145 14.8526 16.4359 14.9735C16.4372 14.9519 16.4424 14.9341 16.4747 14.9404C16.5057 14.9519 16.5406 14.9646 16.5743 14.9824C16.6066 15.0002 16.6415 15.0206 16.6764 15.0422C16.7462 15.0855 16.8225 15.1339 16.9001 15.1809C16.9234 15.1924 16.9466 15.2038 16.9699 15.2153C16.9932 15.2153 17.0087 15.2026 17.0177 15.1949C17.0837 15.2407 17.1419 15.2827 17.1923 15.3247L17.3255 15.4036L17.394 15.4431C17.4173 15.4558 17.4393 15.4685 17.4651 15.4876C17.566 15.5601 17.6655 15.6314 17.7664 15.7039C17.9732 15.8451 18.1646 16.0042 18.3676 16.1582L18.4439 16.2167L18.5241 16.2803C18.5771 16.3223 18.6314 16.3656 18.6844 16.4088C18.7917 16.4941 18.8977 16.5819 19.0089 16.6658C19.1201 16.7486 19.2326 16.8325 19.3451 16.9165C19.4033 16.9585 19.4537 17.0005 19.5196 17.0438C19.5843 17.087 19.6489 17.129 19.7136 17.1723C19.9515 17.2919 19.9696 17.3466 20.1907 17.4395C20.2308 17.4598 20.3717 17.54 20.4131 17.5604C20.4558 17.5794 20.5295 17.6431 20.5734 17.6634C20.6613 17.7041 20.7402 17.7067 20.8307 17.7487C20.9238 17.7881 21.035 17.8288 21.1242 17.867C21.1695 17.8861 21.2057 17.9179 21.2483 17.9357C21.2936 17.9497 21.4229 17.9281 21.4656 17.9408C21.472 17.8403 21.6841 17.8276 21.8729 17.797C22.0668 17.7576 23.1581 17.9332 23.1012 17.8225C23.1529 17.8314 22.2866 17.6265 22.3474 17.6329C22.4068 17.638 22.4676 17.6418 22.5219 17.6443C22.6305 17.6482 22.7159 17.6443 22.7262 17.6163C22.7572 17.5375 22.818 17.4484 22.9357 17.3708C23.052 17.2906 23.2318 17.2206 23.471 17.1443C23.5188 17.1341 23.5692 17.1239 23.6235 17.1201C23.674 17.1137 23.7257 17.1074 23.7748 17.1023C23.8692 17.0896 23.939 17.073 23.9597 17.0488C23.9856 17.0247 23.9791 17.0132 23.9558 17.0069C23.9326 17.0005 23.9093 16.9916 23.8821 16.9865H22.8025L22.5426 16.9649C22.4999 16.9611 22.456 16.9611 22.4133 16.9534L22.2866 16.9305L22.1599 16.9089C22.1172 16.9012 22.0746 16.8974 22.0332 16.8834L21.7849 16.8185C21.7423 16.8096 21.7022 16.7956 21.6621 16.7791L21.5406 16.7346C21.4591 16.7053 21.3789 16.6798 21.2949 16.6379C21.2121 16.5997 21.1281 16.5628 21.0466 16.5233L20.8139 16.3974C20.6678 16.3083 20.5243 16.2167 20.4053 16.1136C20.3471 16.0729 20.2657 15.9915 20.1933 15.9253C20.1196 15.8553 20.0446 15.7866 19.9696 15.7166C19.9101 15.6784 19.8196 15.5996 19.702 15.4939C19.583 15.3871 19.4459 15.2611 19.261 15.088C19.1718 15.0041 19.0774 14.9163 18.9792 14.8234C18.8796 14.7318 18.7723 14.6427 18.665 14.5473C18.6107 14.5002 18.5564 14.4518 18.5008 14.4035C18.4723 14.3793 18.4478 14.3551 18.4154 14.3297C18.3818 14.303 18.3469 14.2775 18.3133 14.2508C18.2448 14.1986 18.175 14.1452 18.1051 14.0917C18.0353 14.0434 17.9629 14.0001 17.8918 13.953C17.8207 13.9085 17.7483 13.8589 17.6759 13.8194L17.4586 13.7024C17.3138 13.6209 17.169 13.556 17.0255 13.4899C16.9544 13.4568 16.8833 13.4224 16.8122 13.3919C16.7398 13.3626 16.6699 13.3334 16.5988 13.3054C16.4605 13.2456 16.3182 13.1985 16.1851 13.1501C15.6446 12.9606 15.1597 12.8638 14.8766 12.813L14.7719 12.8028C14.4615 12.7531 14.1008 12.7442 13.7595 12.7697C13.5914 12.785 13.4259 12.804 13.272 12.8371C13.1168 12.8638 12.9746 12.9058 12.8466 12.9466C12.6152 13.0356 11.661 13.2748 12.1704 13.2634C12.2855 13.2647 12.3902 13.2659 12.4833 13.2761C12.3656 13.3028 12.2506 13.3346 12.1523 13.3639C12.0553 13.3932 11.979 13.4301 11.9402 13.4606C11.7088 13.5777 11.6752 13.6451 11.7204 13.6795C11.7437 13.6973 11.7864 13.7087 11.8381 13.7215C11.8898 13.7342 11.9493 13.7469 12.0023 13.7635C12.1458 13.7762 11.8446 13.962 12.0566 13.953L12.429 13.9149C12.3243 13.9543 11.8743 14.2304 11.8045 14.2699C11.7347 14.3119 11.6842 14.3462 11.661 14.378C11.6131 14.4404 11.6661 14.462 11.8678 14.4391L12.4859 14.4238L12.4846 14.4302Z" fill="#838F9E"/>
<path d="M21.9038 18.43C21.9284 18.5954 22.1521 18.6107 22.3033 18.6577C22.4572 18.6972 22.7611 18.7112 22.8128 18.7812C22.8658 18.8486 22.6783 18.9173 22.6331 18.9682C22.5891 19.0191 21.6103 19.1285 21.6685 19.1972C21.737 19.2125 21.8418 19.2201 21.9465 19.2278C22.0512 19.2354 22.1559 19.2443 22.2258 19.2494C22.2917 19.2889 22.2529 19.3448 22.2128 19.3919C22.1728 19.4365 22.1327 19.4721 22.2051 19.4772C22.4145 19.5204 22.6654 19.5319 22.9472 19.5064C23.2291 19.4797 23.5407 19.4199 23.873 19.2965C23.8846 19.3321 23.9273 19.355 23.9377 19.3868C23.9428 19.4021 23.9402 19.4199 23.9209 19.4415C23.8924 19.4657 23.8407 19.4963 23.7554 19.5357C23.3752 19.6566 23.0261 19.6986 22.6925 19.7202C22.6098 19.7253 22.5283 19.7266 22.4456 19.7304H22.2038C22.037 19.7228 21.8689 19.7113 21.7008 19.6999C21.534 19.6795 21.3685 19.649 21.2017 19.6235C21.0375 19.5879 20.8759 19.5421 20.713 19.4988C20.554 19.4479 20.3975 19.3868 20.2411 19.3296C20.0885 19.2672 19.9475 19.1972 19.8001 19.1311C19.6553 19.0535 19.5105 18.9771 19.3657 18.8906L19.1511 18.7494C19.1162 18.7252 19.08 18.7023 19.0451 18.6768L18.9403 18.5928L18.7334 18.4236L18.5705 18.2722L18.2447 17.9681L17.9279 17.6525L17.6293 17.3573C17.5336 17.2644 17.4405 17.169 17.3422 17.0774L17.0422 16.8064L16.9672 16.7389C16.9427 16.716 16.9168 16.6918 16.8961 16.6778L16.7694 16.5799C16.7474 16.5633 16.7293 16.5468 16.7061 16.5302L16.6324 16.4844L16.4863 16.3903C16.3867 16.3292 16.2729 16.2745 16.1682 16.2147C16.0583 16.1587 15.9393 16.1078 15.8256 16.0531C15.3614 15.8431 14.883 15.693 14.411 15.609L14.3218 15.5925L14.2339 15.5823L14.0568 15.5607L13.8809 15.5492L13.793 15.5428H13.7051H13.5305L13.3482 15.5543C13.2874 15.5556 13.2267 15.5632 13.1659 15.5708C13.1051 15.5785 13.0444 15.5823 12.9836 15.5912C12.4974 15.6637 12.01 15.7922 11.5303 15.9869C11.4191 16.0264 11.3519 16.0378 11.3183 16.0289C11.2808 16.0238 11.2859 15.992 11.3092 15.9513C11.3338 15.9106 11.3816 15.8571 11.4424 15.7973C11.4734 15.7681 11.507 15.7363 11.5419 15.7044C11.5781 15.6752 11.6156 15.6446 11.6544 15.6141C11.5523 15.693 11.5148 15.5861 11.4139 15.6726C11.3945 15.6217 11.4243 15.5225 11.5225 15.4169C11.5717 15.3634 11.6363 15.3062 11.7191 15.2476C11.8031 15.1929 11.9053 15.1395 12.0242 15.0899C11.9027 15.1319 11.7798 15.1688 11.6583 15.2146C11.5264 15.226 11.6544 15.1395 11.604 15.0364C11.5833 14.9792 11.6751 14.9652 11.8445 14.9143C11.9622 14.8812 12.0604 14.8074 11.9247 14.7896C11.8264 14.7781 11.7824 14.7959 11.6441 14.8214L11.4424 14.8545C11.3066 14.8786 11.1049 14.8761 11.4941 14.6801L12.3992 14.2526L12.6461 14.1584C13.6288 13.7551 14.5972 13.8709 14.98 13.9472C15.3627 14.0248 15.7402 14.1406 16.101 14.2844C16.1915 14.32 16.2781 14.3595 16.3673 14.3977L16.4992 14.4549L16.6285 14.5173C16.8005 14.6013 16.9724 14.6801 17.1405 14.7781C17.2246 14.8252 17.3086 14.8685 17.3926 14.9181C17.4754 14.9703 17.5581 15.0212 17.6396 15.072C17.7223 15.1191 17.8025 15.1789 17.8827 15.2375C17.9228 15.2667 17.9628 15.2947 18.0029 15.324C18.043 15.352 18.0844 15.3812 18.1141 15.4067C18.2744 15.5288 18.4348 15.6561 18.5938 15.7859C18.7503 15.9208 18.9054 16.062 19.0606 16.2045C19.1317 16.2707 19.2028 16.3368 19.2739 16.403C19.3437 16.4679 19.4123 16.5341 19.4821 16.6002C19.6204 16.7313 19.7665 16.8573 19.9062 16.987C19.9812 17.0608 20.0355 17.0965 20.0937 17.1436C20.1234 17.1665 20.1493 17.1906 20.1816 17.2123L20.2798 17.2772L20.3768 17.3421C20.4091 17.3637 20.4479 17.3828 20.4828 17.4031C20.5565 17.4426 20.6238 17.4858 20.7014 17.5227C20.7789 17.5596 20.8552 17.5965 20.9328 17.6322C20.9716 17.6525 21.0091 17.6652 21.0466 17.6792L21.1578 17.7212C21.3039 17.7861 21.459 17.8179 21.6077 17.8625C21.5883 17.9363 21.4513 18.0177 21.5457 18.0851C21.7461 18.1844 22.8438 18.3498 22.8878 18.4325H21.8986L21.9038 18.43Z" fill="#5A6472"/>
<path d="M9.17905 11.5656L8.30759 10.9586L9.07691 9.88853L8.68514 9.39483L7.8098 10.6113L7.20081 10.1863L8.23777 8.7459L7.74385 8.40234L6.53105 10.0883C6.4845 10.1519 6.4664 10.2283 6.47803 10.3072C6.48967 10.3886 6.53234 10.4573 6.59957 10.5044L9.07562 12.2298C9.12733 12.2654 9.18552 12.2832 9.24758 12.2832C9.26568 12.2832 9.28378 12.282 9.30318 12.2781C9.38593 12.2641 9.45446 12.2222 9.501 12.1573L10.7138 10.4713L10.216 10.1239L9.17905 11.5643V11.5656Z" fill="white"/>
<path d="M12.015 7.65943C11.8767 7.60472 11.7318 7.58436 11.5819 7.59581C11.4409 7.60726 11.2935 7.64034 11.1448 7.69506C11.0065 7.74596 10.8681 7.80067 10.7324 7.8592C10.5733 7.92791 10.4363 7.98135 10.3251 8.01825C10.2216 8.05261 10.1324 8.07042 10.06 8.07424C10.0018 8.07679 9.954 8.06915 9.91651 8.04879C9.87513 8.02716 9.83505 7.98899 9.79497 7.933C9.73679 7.85284 9.70963 7.77904 9.71093 7.71287C9.71351 7.63653 9.73291 7.56527 9.7704 7.49783C9.81048 7.42531 9.8635 7.35787 9.92944 7.29934C10.0018 7.23444 10.0704 7.17846 10.1324 7.13519C10.1945 7.09193 10.2708 7.04612 10.3574 7.00159C10.435 6.96087 10.5164 6.93415 10.6005 6.92015C10.6781 6.90743 10.7531 6.91252 10.8293 6.93542C10.894 6.95451 10.9561 7.00541 11.0129 7.0843L11.0983 7.2039L11.5961 6.8578L11.5107 6.7382C11.3155 6.4659 11.0556 6.32211 10.7401 6.30939C10.4402 6.29794 10.1169 6.40991 9.77945 6.64531C9.44199 6.87944 9.22735 7.14155 9.13943 7.42403C9.04763 7.71923 9.10064 8.00808 9.29588 8.28037C9.40966 8.43943 9.54025 8.54885 9.68507 8.60611C9.82341 8.6621 9.97081 8.68373 10.1208 8.67228C10.2617 8.66083 10.4091 8.62774 10.5578 8.57303C10.6962 8.52213 10.8358 8.46615 10.9716 8.40762C11.1332 8.33763 11.2715 8.28292 11.3853 8.24475C11.4901 8.21039 11.578 8.19003 11.6491 8.18621C11.7047 8.18367 11.7486 8.1913 11.7849 8.21039C11.8249 8.23329 11.8663 8.27274 11.9064 8.32873C11.9633 8.40889 11.9917 8.48269 11.9878 8.54886C11.984 8.62647 11.9646 8.69773 11.9271 8.76644C11.887 8.83897 11.834 8.90641 11.768 8.96494C11.6956 9.02983 11.6271 9.08582 11.565 9.12908C11.503 9.17234 11.4267 9.21815 11.3401 9.26268C11.2625 9.3034 11.181 9.33012 11.097 9.34412C11.0194 9.35684 10.9457 9.35048 10.8707 9.32758C10.8061 9.30722 10.7453 9.25632 10.6871 9.17616L10.6018 9.05655L10.104 9.40265L10.1893 9.52226C10.3846 9.79456 10.6432 9.93834 10.9561 9.95106C10.9703 9.95106 10.9832 9.95106 10.9974 9.95106C11.2845 9.95106 11.5922 9.83782 11.9129 9.61387C12.249 9.37975 12.465 9.11763 12.5555 8.83642C12.6499 8.54122 12.5981 8.25238 12.4029 7.98008C12.2891 7.82103 12.1585 7.7116 12.015 7.65561V7.65943Z" fill="white"/>
<path d="M15.2406 5.22572C15.1501 5.10865 15.0415 5.01195 14.9174 4.93942C14.7932 4.86689 14.6575 4.81854 14.5139 4.79437C14.3678 4.77019 14.2191 4.77528 14.0705 4.80836L12.6753 5.15701C12.5978 5.17609 12.5344 5.2219 12.4904 5.29061C12.4452 5.36059 12.4323 5.43948 12.4529 5.51837L13.2753 8.70325L13.8662 8.55565L13.5326 7.26159L14.6083 6.99311C14.7596 6.95494 14.898 6.89005 15.0169 6.7997C15.1359 6.70936 15.2328 6.60121 15.3078 6.47778C15.3828 6.35436 15.4332 6.21694 15.4565 6.07188C15.4798 5.92428 15.4733 5.77413 15.4345 5.62526C15.397 5.47893 15.3324 5.34533 15.2419 5.22699L15.2406 5.22572ZM14.854 5.98026C14.8424 6.05025 14.8204 6.11387 14.7842 6.1724C14.7493 6.23093 14.7027 6.28183 14.6458 6.32382C14.5889 6.36581 14.5282 6.39507 14.4571 6.41289L13.3813 6.68137L13.1175 5.65834L14.1933 5.38986C14.2631 5.37205 14.3316 5.3695 14.4015 5.37968C14.4713 5.39113 14.5372 5.41404 14.5967 5.44839C14.6562 5.48275 14.7079 5.52855 14.7506 5.58454C14.7932 5.64053 14.823 5.70033 14.8411 5.76904C14.8592 5.84157 14.863 5.91028 14.8527 5.97899L14.854 5.98026Z" fill="white"/>
<path d="M17.1697 6.24977C17.3068 6.13907 17.5046 6.09581 17.7593 6.12126C17.9739 6.14289 18.1394 6.20778 18.2545 6.3134L18.3644 6.41519L18.7795 5.97366L18.6709 5.87441C18.4562 5.67718 18.1718 5.56012 17.8227 5.52449C17.3986 5.48123 17.0495 5.56776 16.7831 5.7828C16.5181 5.99656 16.3616 6.31467 16.3176 6.72821C16.2737 7.14556 16.3616 7.48911 16.5775 7.74996C16.7935 8.01081 17.118 8.16604 17.5408 8.20931C17.608 8.21567 17.674 8.21948 17.7386 8.21948C17.864 8.21948 17.9843 8.20676 18.0981 8.18004C18.2739 8.13932 18.4304 8.06679 18.5648 7.96246L18.6812 7.87211L18.3049 7.3975L18.1873 7.48784C18.0451 7.59727 17.855 7.63799 17.6054 7.61254C17.352 7.58709 17.1658 7.50566 17.0546 7.36951C16.9434 7.23463 16.8995 7.03995 16.9266 6.78928C16.9525 6.53861 17.034 6.36175 17.1736 6.2485L17.1697 6.24977Z" fill="white"/>
<path d="M20.2915 5.0079L19.0098 8.5L19.5838 8.70403L20.8655 5.21193L20.2915 5.0079Z" fill="white"/>
<path d="M23.5239 7.94134L23.017 7.60669L22.28 8.68698C22.2361 8.7506 22.1805 8.82058 22.1158 8.89184C22.0576 8.95546 21.9878 9.0089 21.9102 9.05089C21.8378 9.08906 21.7615 9.10815 21.6749 9.10942C21.596 9.10942 21.5068 9.07761 21.4086 9.01399C21.3116 8.9491 21.2469 8.88039 21.2185 8.80786C21.1862 8.72897 21.1758 8.65135 21.1849 8.57119C21.1939 8.48466 21.2185 8.40196 21.2573 8.32434C21.2999 8.23781 21.3439 8.16147 21.3879 8.09657L22.1249 7.01629L21.6193 6.68164L20.8823 7.76193C20.6483 8.10548 20.5436 8.43377 20.5733 8.73788C20.6043 9.05344 20.7711 9.31428 21.0698 9.51151C21.2754 9.64766 21.4836 9.7151 21.6943 9.7151C21.7913 9.7151 21.8883 9.7011 21.9852 9.67183C22.2826 9.58404 22.5528 9.36518 22.7869 9.02163L23.5239 7.94134Z" fill="white"/>
<path d="M25.3046 9.86334C25.1792 9.69411 25.0383 9.55796 24.887 9.46125C24.8288 9.42435 24.7693 9.39127 24.7086 9.36455L25.7067 8.6469L25.3473 8.16211L23.3897 9.56814C23.0484 9.81371 22.848 10.1064 22.795 10.4397C22.742 10.7731 22.8428 11.1129 23.0936 11.4513C23.3432 11.7872 23.6406 11.9845 23.9793 12.0366C24.0375 12.0455 24.097 12.0506 24.1565 12.0506C24.437 12.0506 24.7215 11.9488 25.0047 11.7453C25.3486 11.4984 25.5503 11.2045 25.602 10.8711C25.655 10.5377 25.5555 10.1993 25.3059 9.86334H25.3046ZM23.3975 10.5352C23.4259 10.3596 23.541 10.2018 23.7479 10.0529C23.9224 9.92696 24.0879 9.86461 24.2405 9.86461C24.2677 9.86461 24.2948 9.86716 24.322 9.87097C24.4965 9.89769 24.662 10.0148 24.812 10.2171C24.9607 10.4181 25.0228 10.6077 24.9956 10.7808C24.9685 10.9538 24.8508 11.1167 24.6452 11.2643C24.4383 11.4131 24.2509 11.4717 24.0711 11.4437C23.8914 11.4157 23.7311 11.3037 23.5811 11.1001C23.4311 10.8978 23.369 10.707 23.3975 10.5352Z" fill="white"/>
</svg>
