<svg width="16" height="16" viewBox="0 0 16 16" fill="none" xmlns="http://www.w3.org/2000/svg">
<g clip-path="url(#clip0_2242_2621)">
<mask id="mask0_2242_2621" style="mask-type:luminance" maskUnits="userSpaceOnUse" x="0" y="0" width="16" height="16">
<path d="M8.00066 14.6673C8.87629 14.6684 9.74351 14.4965 10.5525 14.1614C11.3615 13.8263 12.0963 13.3346 12.7147 12.7147C13.3346 12.0963 13.8263 11.3615 14.1614 10.5525C14.4965 9.74351 14.6684 8.87629 14.6673 8.00066C14.6684 7.12502 14.4965 6.2578 14.1614 5.44882C13.8263 4.63984 13.3346 3.90505 12.7147 3.28666C12.0963 2.66671 11.3615 2.17506 10.5525 1.83996C9.74351 1.50486 8.87629 1.33291 8.00066 1.33399C7.12502 1.33291 6.2578 1.50486 5.44882 1.83996C4.63984 2.17506 3.90505 2.66671 3.28666 3.28666C2.66671 3.90505 2.17506 4.63984 1.83996 5.44882C1.50486 6.2578 1.33291 7.12502 1.33399 8.00066C1.33291 8.87629 1.50486 9.74351 1.83996 10.5525C2.17506 11.3615 2.66671 12.0963 3.28666 12.7147C3.90505 13.3346 4.63984 13.8263 5.44882 14.1614C6.2578 14.4965 7.12502 14.6684 8.00066 14.6673Z" fill="white" stroke="white" stroke-width="2" stroke-linejoin="round"/>
<path d="M5.33398 8L7.33398 10L11.334 6" stroke="black" stroke-width="2" stroke-linecap="round" stroke-linejoin="round"/>
</mask>
<g mask="url(#mask0_2242_2621)">
<path d="M0 0H16V16H0V0Z" fill="white"/>
</g>
</g>
<defs>
<clipPath id="clip0_2242_2621">
<rect width="16" height="16" fill="white"/>
</clipPath>
</defs>
</svg>
