<svg width="32" height="32" viewBox="0 0 32 32" fill="none" xmlns="http://www.w3.org/2000/svg">
<g clip-path="url(#clip0_2242_2614)">
<path fill-rule="evenodd" clip-rule="evenodd" d="M1.87728 27.9379C1.75633 27.9375 1.63681 27.9117 1.52641 27.8623L6.26391 23.4647V27.9379H1.87728ZM21.3756 23.4661L21.241 23.5911H16.7538L16.6193 23.4661L16.0807 22.9661L15.946 22.8411H22.0488L21.9142 22.9661L21.3756 23.4661ZM7.87391 31.2492C7.75292 31.2491 7.63333 31.2233 7.52303 31.1736L15.6718 23.6079L17.9007 25.6786C18.1996 25.9539 18.5911 26.1067 18.9974 26.1067C19.4038 26.1067 19.7953 25.9539 20.0942 25.6786L22.323 23.6079L30.4718 31.1736C30.3614 31.223 30.2419 31.2488 30.121 31.2492H7.87391ZM29.4694 13.4705L30.805 14.7097L29.4694 15.9492V13.4705ZM24.8624 20.2273L24.3238 20.7273L24.1892 20.8523H13.8055L13.6708 20.7273L13.1323 20.2273L12.9977 20.1023H24.997L24.8624 20.2273ZM21.5299 6.09737H16.4649L18.4107 4.29043C18.5695 4.14103 18.7794 4.05785 18.9974 4.05785C19.2154 4.05785 19.4253 4.14103 19.5841 4.29043L21.5299 6.09737ZM17.2315 4.363L13.5877 0.979745C13.4288 0.830485 13.219 0.747396 13.001 0.747396C12.783 0.747396 12.5732 0.830485 12.4143 0.979745L1.19297 11.3992L6.26385 16.106V14.7097C6.2634 14.6583 6.27366 14.6074 6.29397 14.5602C6.31427 14.513 6.34418 14.4705 6.38178 14.4354L8.52547 12.4472V7.94793C8.52559 7.45748 8.72034 6.98713 9.06697 6.64016C9.4136 6.29319 9.88377 6.09797 10.3742 6.09737H15.3623L17.2315 4.363ZM8.52547 15.9492L7.18991 14.7097L8.52547 13.4705V15.9492ZM22.8742 23.0967L30.9555 30.5986C30.9719 30.5295 30.9808 30.4589 30.982 30.3879V15.5698L22.8742 23.0967ZM7.03953 30.5986L15.1208 23.0967L7.01328 15.5698V30.3879C7.01452 30.4589 7.02341 30.5295 7.03978 30.5986H7.03953ZM1.01641 27.0773C1.01764 27.148 1.02653 27.2184 1.04291 27.2872L6.26416 22.4416V17.1298L1.01641 12.2585V27.0772V27.0773ZM0.388407 11.1242C0.350449 11.1593 0.320126 11.2018 0.29933 11.2491C0.278534 11.2964 0.26771 11.3475 0.267532 11.3992V27.0773C0.267912 27.5042 0.437607 27.9135 0.739388 28.2154C1.04117 28.5174 1.45039 28.6873 1.87728 28.6879H6.26416V30.3879C6.26447 30.8148 6.43412 31.2243 6.7359 31.5263C7.03767 31.8284 7.44693 31.9985 7.87391 31.9992H30.121C30.5479 31.9984 30.9571 31.8283 31.2588 31.5263C31.5605 31.2242 31.7301 30.8149 31.7305 30.3879V14.7097C31.7304 14.6581 31.7196 14.6071 31.6988 14.5599C31.678 14.5127 31.6476 14.4703 31.6096 14.4354L29.4692 12.4472V7.94793C29.4689 7.4571 29.2738 6.98646 28.9266 6.63946C28.5795 6.29245 28.1088 6.09747 27.618 6.09737H22.6326L20.0942 3.74112C19.7953 3.46579 19.4037 3.31295 18.9973 3.31295C18.5909 3.31295 18.1994 3.46579 17.9005 3.74112L17.7825 3.85168L14.0975 0.429933C13.7986 0.15472 13.4071 0.00195312 13.0008 0.00195312C12.5945 0.00195313 12.203 0.15472 11.9041 0.429933L0.388407 11.1242ZM11.8657 17.3636H26.1291C26.2286 17.3636 26.3239 17.4031 26.3943 17.4735C26.4646 17.5438 26.5041 17.6392 26.5041 17.7386C26.5041 17.8381 26.4646 17.9335 26.3943 18.0038C26.3239 18.0741 26.2286 18.1136 26.1291 18.1136H11.8657C11.7663 18.1136 11.6709 18.0741 11.6006 18.0038C11.5302 17.9335 11.4907 17.8381 11.4907 17.7386C11.4907 17.6392 11.5302 17.5438 11.6006 17.4735C11.6709 17.4031 11.7663 17.3636 11.8657 17.3636ZM11.8657 14.6247H26.1291C26.2286 14.6247 26.3239 14.6643 26.3943 14.7346C26.4646 14.8049 26.5041 14.9003 26.5041 14.9997C26.5041 15.0992 26.4646 15.1946 26.3943 15.2649C26.3239 15.3352 26.2286 15.3747 26.1291 15.3747H11.8657C11.7663 15.3747 11.6709 15.3352 11.6006 15.2649C11.5302 15.1946 11.4907 15.0992 11.4907 14.9997C11.4907 14.9003 11.5302 14.8049 11.6006 14.7346C11.6709 14.6643 11.7663 14.6247 11.8657 14.6247ZM11.8657 11.8861H26.1291C26.2286 11.8861 26.3239 11.9256 26.3943 11.9959C26.4646 12.0662 26.5041 12.1616 26.5041 12.2611C26.5041 12.3605 26.4646 12.4559 26.3943 12.5262C26.3239 12.5965 26.2286 12.6361 26.1291 12.6361H11.8657C11.7663 12.6361 11.6709 12.5965 11.6006 12.5262C11.5302 12.4559 11.4907 12.3605 11.4907 12.2611C11.4907 12.1616 11.5302 12.0662 11.6006 11.9959C11.6709 11.9256 11.7663 11.8861 11.8657 11.8861ZM11.8657 9.14737H26.1291C26.2286 9.14737 26.3239 9.18688 26.3943 9.25721C26.4646 9.32753 26.5041 9.42291 26.5041 9.52237C26.5041 9.62183 26.4646 9.71721 26.3943 9.78754C26.3239 9.85786 26.2286 9.89737 26.1291 9.89737H11.8657C11.7663 9.89737 11.6709 9.85786 11.6006 9.78754C11.5302 9.71721 11.4907 9.62183 11.4907 9.52237C11.4907 9.42291 11.5302 9.32753 11.6006 9.25721C11.6709 9.18688 11.7663 9.14737 11.8657 9.14737Z" fill="#A0AAB8"/>
</g>
<defs>
<clipPath id="clip0_2242_2614">
<rect width="32" height="32" fill="white" transform="matrix(-1 0 0 1 32 0)"/>
</clipPath>
</defs>
</svg>
