<svg width="33" height="33" viewBox="0 0 33 33" fill="none" xmlns="http://www.w3.org/2000/svg">
<path d="M31.4531 15.4636H22.6875V12.9901C22.6947 12.9571 22.7076 12.9257 22.7076 12.8906V8.76562C22.7076 8.48048 22.4771 8.25 22.192 8.25H15.8699C16.3716 7.91227 16.8728 7.50595 17.3451 7.03261C18.2727 6.10655 18.9796 5.06034 19.338 4.08684C19.7448 2.98238 19.6639 2.06972 19.1096 1.51542C18.793 1.19831 18.3444 1.03125 17.8123 1.03125C16.5954 1.03125 14.9784 1.89286 13.5919 3.27938C12.8509 4.02033 12.2533 4.83708 11.8594 5.63217C11.4649 4.83708 10.8678 4.02033 10.1269 3.27938C8.74036 1.89286 7.12284 1.03125 5.90648 1.03125C5.37436 1.03125 4.92577 1.19831 4.60866 1.51491C4.05436 2.06972 3.97341 2.98238 4.38023 4.08684C4.73859 5.06034 5.44655 6.10655 6.37364 7.03261C6.84698 7.50595 7.34714 7.91227 7.84936 8.25H1.56698C1.28236 8.25 1.05136 8.48048 1.05136 8.76562V12.7911C1.04466 12.8241 1.03125 12.8556 1.03125 12.8906V24.2344C1.03125 25.0872 1.72528 25.7812 2.57812 25.7812H9.56948V31.4531C9.56948 31.7383 9.80048 31.9688 10.0851 31.9688H31.4531C31.7383 31.9688 31.9688 31.7383 31.9688 31.4531V15.9792C31.9688 15.6946 31.7383 15.4636 31.4531 15.4636ZM21.6764 9.28125V12.375H14.4375V9.28125H21.6764ZM12.5668 6.58195C12.8746 5.74613 13.498 4.83192 14.3215 4.00898C15.6652 2.66423 17.043 2.0625 17.8123 2.0625C18.0685 2.0625 18.2598 2.12386 18.3815 2.24452C18.628 2.49098 18.6239 3.04631 18.3712 3.73055C18.0629 4.56689 17.4395 5.48058 16.616 6.30352C15.2723 7.64775 13.8945 8.25 13.1257 8.25C12.8695 8.25 12.6782 8.18864 12.5575 8.06798C12.3111 7.82203 12.3142 7.26619 12.5668 6.58195ZM7.10222 6.30352C6.27877 5.48006 5.65538 4.56689 5.34755 3.73055C5.09541 3.0458 5.0918 2.49047 5.33827 2.24452C5.45892 2.12386 5.65022 2.0625 5.90648 2.0625C6.67528 2.0625 8.05355 2.66423 9.39778 4.00847C10.2212 4.83192 10.8446 5.74561 11.1525 6.58144C11.4046 7.26567 11.4082 7.82152 11.1617 8.06798C11.0411 8.18864 10.8498 8.25 10.5935 8.25C9.8242 8.25 8.44645 7.64775 7.10222 6.30352ZM2.08261 9.28125H9.28125V12.375H2.08261V9.28125ZM9.56948 15.9792V24.75H2.57812C2.29402 24.75 2.0625 24.519 2.0625 24.2344V13.4062H9.79688H13.9219H21.6562V15.4636H10.0851C9.79997 15.4636 9.56948 15.6946 9.56948 15.9792ZM10.6007 25.2692C10.6007 25.2682 10.6012 25.2672 10.6012 25.2656C10.6012 25.2641 10.6007 25.263 10.6007 25.262V17.7406C12.0228 19.6659 14.2921 22.539 16.5191 24.5273L10.6007 30.2486V25.2692ZM11.3711 30.9375L17.3116 25.1955C18.6708 26.2768 19.8067 26.811 20.7699 26.811C21.732 26.811 22.868 26.2768 24.2277 25.1955L30.1666 30.9375H11.3711ZM30.9375 30.2481L25.0186 24.5273C27.2456 22.539 29.5154 19.6659 30.9375 17.7406V30.2481Z" fill="white"/>
</svg>
