<svg width="41" height="41" viewBox="0 0 41 41" fill="none" xmlns="http://www.w3.org/2000/svg">
<circle cx="20.5" cy="20.5" r="20.5" fill="#EFF0F1"/>
<g clip-path="url(#clip0_2242_2767)">
<path d="M28.3101 26.59L28.2773 29.4488C28.2691 30.2855 27.6006 30.9705 26.7639 30.9951C24.4178 31.0607 19.6682 30.5234 15.0744 25.9296C10.4807 21.3359 9.93925 16.5822 10.0049 14.2361C10.0295 13.3994 10.7144 12.7349 11.5512 12.7226L14.41 12.6898C15.2713 12.6775 15.9726 13.3666 15.9932 14.2238C16.0096 14.9087 16.0752 15.7004 16.2639 16.3238C16.4402 16.9021 16.7355 17.5543 17.0185 18.1203C17.4164 18.916 17.076 19.8798 16.2639 20.249L14.9719 20.8314C14.9719 20.8314 15.5543 22.3695 17.0924 23.9076C18.6305 25.4457 20.1685 26.0281 20.1685 26.0281L20.751 24.7361C21.116 23.924 22.084 23.5836 22.8797 23.9814C23.4457 24.2644 24.0978 24.5556 24.6762 24.7361C25.2996 24.9248 26.0912 24.9945 26.7762 25.0068C27.6334 25.0273 28.3225 25.7287 28.3101 26.59ZM23.1549 14.8558H23.417V14.4079L23.3961 14.442L23.1553 14.8558H23.1549ZM26.6654 14.7008C26.6207 14.7008 26.5834 14.7111 26.5534 14.732C26.5235 14.7525 26.5009 14.7779 26.4866 14.8079V14.9087C26.4866 15.0925 26.5502 15.1848 26.6773 15.1848C26.7286 15.1848 26.7712 15.1618 26.8057 15.1159C26.8401 15.0699 26.8574 15.0121 26.8574 14.9428C26.8574 14.8735 26.8397 14.8132 26.8049 14.7685C26.77 14.7234 26.7233 14.7008 26.6654 14.7008ZM21.9691 14.8558H22.2312V14.4079L22.2103 14.442L21.9695 14.8558H21.9691ZM28.8175 14.8558H29.0796V14.4079L29.0587 14.442L28.8179 14.8558H28.8175ZM31 14.6963C31 17.2901 28.3372 19.3926 25.0527 19.3926C24.3415 19.3926 23.6598 19.2937 23.0277 19.1133L19.7042 20.5L20.4392 17.6601C19.6054 16.8517 19.1054 15.8201 19.1054 14.6963C19.1054 12.1025 21.7682 10 25.0527 10C28.3372 10 31 12.1025 31 14.6963ZM21.5385 14.5987H21.1976V14.2189H20.8826V14.5987H20.5406V14.8874H20.8826V15.2783H21.1976V14.8874H21.5385V14.5987ZM22.716 14.8554H22.568V13.9687H22.2312V13.9715L21.6484 14.9092L21.6685 15.1151H22.2312V15.4239H22.568V15.1151H22.716V14.855V14.8554ZM23.9014 14.8554H23.7533V13.9687H23.4166V13.9715L22.8337 14.9092L22.8538 15.1151H23.4166V15.4239H23.7533V15.1151H23.9014V14.855V14.8554ZM24.7131 14.6663H24.1122V14.9264H24.7131V14.6663ZM25.7167 13.9687H25.6856L25.0469 14.1897V14.4457L25.3788 14.3489V15.4243H25.7167V13.9691V13.9687ZM27.1953 14.9424C27.1953 14.7931 27.158 14.6725 27.0834 14.5806C27.0087 14.4887 26.9082 14.4428 26.7823 14.4428C26.6662 14.4428 26.5703 14.4801 26.4944 14.5548C26.5128 14.4473 26.5629 14.3637 26.6437 14.3034C26.7245 14.2431 26.8283 14.2127 26.9542 14.2127H26.9693V13.9478H26.9185C26.7733 13.9478 26.6408 13.9818 26.5215 14.0499C26.4021 14.118 26.3102 14.2115 26.2462 14.3312C26.1818 14.451 26.1499 14.5855 26.1499 14.7357V14.8706C26.1511 14.9846 26.1745 15.0851 26.22 15.1725C26.2651 15.2598 26.3287 15.3271 26.4099 15.3739C26.4911 15.421 26.5834 15.4444 26.6867 15.4444C26.7819 15.4444 26.8689 15.4227 26.9472 15.3788C27.0255 15.3353 27.0867 15.2746 27.1301 15.1975C27.1736 15.1204 27.1958 15.0351 27.1958 14.9428L27.1953 14.9424ZM28.3569 15.1643H27.7843L27.9722 14.9473C28.0723 14.8472 28.1444 14.7677 28.1896 14.7078C28.2347 14.6483 28.2675 14.5913 28.2888 14.5367C28.3101 14.4826 28.3208 14.4268 28.3208 14.3694C28.3208 14.2336 28.2782 14.129 28.1933 14.0564C28.1084 13.9838 27.9874 13.9473 27.8299 13.9473C27.7318 13.9473 27.6432 13.9687 27.5641 14.0113C27.4849 14.054 27.423 14.113 27.3783 14.1889C27.3336 14.2644 27.3114 14.3472 27.3114 14.4362H27.6494C27.6494 14.371 27.6654 14.3165 27.6974 14.273C27.7294 14.2295 27.7712 14.2074 27.8225 14.2074C27.8737 14.2074 27.9139 14.2238 27.9414 14.2562C27.9689 14.289 27.9824 14.3366 27.9824 14.3993C27.9824 14.4764 27.9246 14.581 27.8093 14.7123L27.3414 15.2041V15.4239H28.3569V15.1639V15.1643ZM29.5644 14.8554H29.4163V13.9687H29.0796V13.9715L28.4968 14.9092L28.5169 15.1151H29.0796V15.4239H29.4163V15.1151H29.5644V14.855V14.8554Z" fill="#0B314E"/>
</g>
<defs>
<clipPath id="clip0_2242_2767">
<rect width="21" height="21" fill="white" transform="translate(10 10)"/>
</clipPath>
</defs>
</svg>
