<svg width="41" height="41" viewBox="0 0 41 41" fill="none" xmlns="http://www.w3.org/2000/svg">
<circle cx="20.5" cy="20.5" r="20.5" fill="#EFF0F1"/>
<path d="M26.7833 13.3976C24.1514 14.4875 12.8666 19.1619 9.74853 20.4359C7.65735 21.252 8.88144 22.017 8.88144 22.017C8.88144 22.017 10.6664 22.629 12.1965 23.088C13.7266 23.5471 14.5426 23.037 14.5426 23.037L21.7339 18.1917C24.2839 16.4577 23.672 17.8857 23.06 18.4976C21.7339 19.8238 19.5408 21.9148 17.7048 23.5979C16.8887 24.3119 17.2968 24.9241 17.6538 25.23C18.9799 26.3521 22.601 28.6471 22.8051 28.8002C23.8826 29.563 26.0019 30.661 26.3242 28.3412L27.5994 20.3339C28.0074 17.6308 28.4154 15.1315 28.4665 14.4175C28.6193 12.6836 26.7833 13.3976 26.7833 13.3976Z" fill="#0B314E"/>
</svg>
