<svg width="41" height="41" viewBox="0 0 41 41" fill="none" xmlns="http://www.w3.org/2000/svg">
<circle cx="20.5" cy="20.5" r="20.5" fill="#EFF0F1"/>
<g clip-path="url(#clip0_2242_2761)">
<path d="M20.5026 10H20.4974C14.7079 10 10 14.7092 10 20.5C10 22.7969 10.7402 24.9257 11.9989 26.6543L10.6904 30.5551L14.7263 29.2649C16.3866 30.3647 18.3672 31 20.5026 31C26.2921 31 31 26.2894 31 20.5C31 14.7106 26.2921 10 20.5026 10ZM26.6123 24.8273C26.359 25.5426 25.3536 26.1359 24.5517 26.3091C24.0031 26.4259 23.2864 26.5191 20.8741 25.519C17.7884 24.2406 15.8012 21.1051 15.6464 20.9016C15.4981 20.6982 14.3995 19.2413 14.3995 17.7346C14.3995 16.2278 15.1647 15.4941 15.4731 15.1791C15.7264 14.9206 16.1451 14.8024 16.5468 14.8024C16.6767 14.8024 16.7935 14.809 16.8985 14.8142C17.2069 14.8274 17.3618 14.8458 17.5652 15.3327C17.8186 15.943 18.4354 17.4498 18.5089 17.6046C18.5837 17.7595 18.6586 17.9695 18.5536 18.1729C18.4551 18.3829 18.3685 18.4761 18.2136 18.6546C18.0588 18.8331 17.9117 18.9696 17.7569 19.1613C17.6151 19.3279 17.455 19.5064 17.6335 19.8149C17.812 20.1167 18.4289 21.1234 19.3371 21.9319C20.5092 22.9754 21.4594 23.3088 21.7994 23.4505C22.0527 23.5555 22.3546 23.5306 22.5396 23.3337C22.7746 23.0804 23.0646 22.6604 23.3599 22.2469C23.5699 21.9503 23.8351 21.9136 24.1133 22.0186C24.3968 22.117 25.897 22.8586 26.2054 23.0121C26.5139 23.167 26.7173 23.2405 26.7921 23.3704C26.8656 23.5004 26.8656 24.1107 26.6123 24.8273Z" fill="#0B314E"/>
</g>
<defs>
<clipPath id="clip0_2242_2761">
<rect width="21" height="21" fill="white" transform="translate(10 10)"/>
</clipPath>
</defs>
</svg>
